# xmcd
#
# Track frame offsets: 
#        150
#        18795
#        43957
#        66542
#        83522
#        104867
#        122862
#        136357
#        168300
#        185145
#        204440
#        226020
#        241510
#        258925
#
# Disc length: 3767 seconds
#
# Revision: 5
# Processed by: cddbd v1.5.2PL0 Copyright (c) Steve Scherf et al.
# Submitted via: ExactAudioCopyFreeDBPlugin 1.0
#
DISCID=be0eb50e
DTITLE=Various Artist - High Endition Volume 11 - Melange
DYEAR=2007
DGENRE=Blues
TTITLE0=Allan Taylor - Chimes at midnight
TTITLE1=Christian Willisohn - Blues in my bottle
TTITLE2=Zed Mitchell - Spring time in Paris
TTITLE3=No Blues - Black Cadillac
TTITLE4=Zed Mitchell - What's life
TTITLE5=Bo Ramsey - Sitting on the top of the world
TTITLE6=Eugene Ruffolo - Lonesome me
TTITLE7=Blues Company - Kids
TTITLE8=No Blues - Farelwell Shalabiye
TTITLE9=The Holmes Brothers - Peace and understanding
TTITLE10=Ewen Carruthers - Skeleton crew
TTITLE11=Jimmy Little - Radwick Bells
TTITLE12=No Blues - King's dream
TTITLE13=Zed Mitchell - I'm a river
EXTD=
EXTT0=
EXTT1=
EXTT2=
EXTT3=
EXTT4=
EXTT5=
EXTT6=
EXTT7=
EXTT8=
EXTT9=
EXTT10=
EXTT11=
EXTT12=
EXTT13=
PLAYORDER=
